<?xml version="1.0" encoding="UTF-8" standalone="no"?>
<svg
   xmlns:dc="http://purl.org/dc/elements/1.1/"
   xmlns:cc="http://creativecommons.org/ns#"
   xmlns:rdf="http://www.w3.org/1999/02/22-rdf-syntax-ns#"
   xmlns:svg="http://www.w3.org/2000/svg"
   xmlns="http://www.w3.org/2000/svg"
   height="39"
   width="43"
   id="svg24"
   xml:space="preserve"
   enable-background="new 0 0 48 48"
   viewBox="0 0 43 39"
   y="0px"
   x="0px"
   version="1.1"><metadata
     id="metadata30"><rdf:RDF><cc:Work
         rdf:about=""><dc:format>image/svg+xml</dc:format><dc:type
           rdf:resource="http://purl.org/dc/dcmitype/StillImage" /><dc:title></dc:title></cc:Work></rdf:RDF></metadata><defs
     id="defs28" /><g
     transform="translate(-2,-4)"
     id="g12"><path
       style="fill:#e74c3c"
       id="path10"
       d="m 38,26.9 c -1.9,3 -6,5.1 -9.4,5.1 0,0 0,0 -0.1,0 v 0 C 23.8,32 20,28.2 20,23.5 c 2.8,-1.7 2.1,-6.4 5,-7.7 1.1,-0.5 2.3,-0.8 3.5,-0.8 v 0 c 0,0 0,0 0.1,0 3.4,0 7.4,2 9.3,4.9 l 6.8,-7.4 C 41.1,7.4 35.2,4 28.6,4 17.8,4 9.1,12.7 9.1,23.5 9.1,34.3 17.8,43 28.6,43 c 6.9,0 13,-3.6 16.4,-9.1 z" /></g><path
     style="fill:#2980b9"
     id="path14"
     d="M 28,3.4 C 28,2.6 27.4,2 26.6,2 26,2 25.5,2.4 25.3,3 l -7,15 2,4 c 0,0 7.4,-17.6 7.5,-18 V 4 C 27.9,3.8 28,3.6 28,3.4 Z" /><path
     style="fill:#2980b9"
     id="path16"
     d="m 25,25 -5,-1 1.1,-5.5 c 0.2,-0.4 -0.2,-1.3 0.3,-1.2 l 3.9,1.4 c 0.5,0.2 0.8,0.6 0.7,1.1 z" /><path
     style="fill:#f39c12"
     id="path18"
     d="m 20,24 -8,6 -3,7 h 4 c 0.4,-0.2 1,-0.7 1.2,-1 0,0 -0.1,0.5 -0.5,1 H 17 c 0,0 5.8,-2.9 8,-12 z" /><path
     style="fill:#f1c40f"
     id="path20"
     d="m 12,19 c 0,0 -5.5,8 -12,8 0,0 0.2,3.4 4.2,6.9 0.9,-0.1 2,-0.3 2.8,-0.9 0,0 -0.6,1.1 -1.4,2 1,0.7 2.1,1.4 3.4,2 0,0 7.7,-5 11,-13 z" /><path
     style="fill:#3498db"
     id="path22"
     d="m 12,19 8,5 2.2,-5.1 c 0.3,-0.5 0,-1.2 -0.5,-1.4 l -5.9,-2.3 c -0.4,-0.2 -0.9,0 -1.2,0.3 z" /></svg>