<svg id="svg2" xmlns="http://www.w3.org/2000/svg" viewBox="0 0 256 256"><defs><style>.cls-1{fill:#e92427;}.cls-2{fill:#121010;}</style></defs><path id="path3664" class="cls-1" d="M113.5,249.31C.84,234.71-33.85,88.48,60.5,25.88c74.07-49.15,174.57-3.95,188.16,84.62C260.61,188.42,191.49,259.42,113.5,249.31Z"/><path id="path3662" class="cls-2" d="M110,236.83c-51.31-7.32-91.93-55.08-92-108.14-.1-97.53,115.1-147.42,185.65-80.4C281.64,122.36,217.18,252.11,110,236.83Zm27.49-32.74c22.89-8.05,49.12-38.1,55.44-63.51,2.68-10.78,4-12,14.34-12.58l8.23-.5.3-3.07c.25-2.61-2.09-6.25-15.77-24.5-24.58-32.79-23.41-32.73-46.1-2.34-20.31,27.2-20.71,30-4.36,30.56,25.54.93,13.83,47-17.13,67.36-13.74,9.05-10.75,14.13,5.05,8.58ZM117.83,195C133.89,184.23,150,158.69,150,144c0-5.84-4.49-4.76-5.3,1.28-3.17,23.59-41.41,23.81-51.8.29C81.27,119.18,110.58,94.84,136,109.71c1.41.83,13.14-16.79,12.05-18.1s-9.35-5.24-14.34-7c-1.44-.49-1.75-1.82-1.75-7.54,0-9.79-3-12.51-13.32-11.93-9.38.53-11.68,3-11.68,12.4,0,5.28-.32,6.58-1.75,7-5,1.61-14.22,6.65-17.76,9.68l-4,3.44-5-2.87C70,90,65.26,91.25,60.59,99.62c-4.51,8.08-3.38,12.7,4.17,16.94l4.74,2.66V148l-4.75,2.59c-8.94,4.86-9.08,12.52-.41,22.21,2.78,3.11,8.5,3,13.66-.25,4.94-3.12,4.39-3.18,9.34,1.06,3.66,3.13,12.86,8.17,17.91,9.81,1.39.45,1.75,1.72,1.75,6.16,0,10.46,1.88,11.4,10.83,5.43Zm12.55-46.3c7.56-5.77,9.5-13.66,3.36-13.66-8.45,0-10.65-4.06-6.26-11.56,5.74-9.78-15.35-10.45-22.29-.7-12.08,17,8.79,38.43,25.19,25.92Z"/></svg>