<?xml version="1.0" encoding="UTF-8"?>
<svg xmlns="http://www.w3.org/2000/svg" xmlns:xlink="http://www.w3.org/1999/xlink" width="294.24pt" height="144.79pt" viewBox="0 0 294.24 144.79" version="1.1">
<defs>
<clipPath id="clip1">
  <path d="M 0 116 L 30 116 L 30 144.789063 L 0 144.789063 Z M 0 116 "/>
</clipPath>
<clipPath id="clip2">
  <path d="M 0 111 L 36 111 L 36 144.789063 L 0 144.789063 Z M 0 111 "/>
</clipPath>
<clipPath id="clip3">
  <path d="M 44 116 L 73 116 L 73 144.789063 L 44 144.789063 Z M 44 116 "/>
</clipPath>
<clipPath id="clip4">
  <path d="M 38 110 L 79 110 L 79 144.789063 L 38 144.789063 Z M 38 110 "/>
</clipPath>
<clipPath id="clip5">
  <path d="M 87 118 L 117 118 L 117 144.789063 L 87 144.789063 Z M 87 118 "/>
</clipPath>
<clipPath id="clip6">
  <path d="M 82 112 L 123 112 L 123 144.789063 L 82 144.789063 Z M 82 112 "/>
</clipPath>
<clipPath id="clip7">
  <path d="M 137 128 L 164 128 L 164 144.789063 L 137 144.789063 Z M 137 128 "/>
</clipPath>
<clipPath id="clip8">
  <path d="M 136 127 L 165 127 L 165 144.789063 L 136 144.789063 Z M 136 127 "/>
</clipPath>
<clipPath id="clip9">
  <path d="M 177 116 L 206 116 L 206 144.789063 L 177 144.789063 Z M 177 116 "/>
</clipPath>
<clipPath id="clip10">
  <path d="M 172 110 L 212 110 L 212 144.789063 L 172 144.789063 Z M 172 110 "/>
</clipPath>
<clipPath id="clip11">
  <path d="M 221 118 L 249 118 L 249 144.789063 L 221 144.789063 Z M 221 118 "/>
</clipPath>
<clipPath id="clip12">
  <path d="M 216 112 L 255 112 L 255 144.789063 L 216 144.789063 Z M 216 112 "/>
</clipPath>
<clipPath id="clip13">
  <path d="M 266 118 L 294 118 L 294 144.789063 L 266 144.789063 Z M 266 118 "/>
</clipPath>
<clipPath id="clip14">
  <path d="M 260 112 L 294.238281 112 L 294.238281 144.789063 L 260 144.789063 Z M 260 112 "/>
</clipPath>
</defs>
<g id="surface1">
<path style=" stroke:none;fill-rule:nonzero;fill:rgb(13.699341%,12.199402%,12.5%);fill-opacity:1;" d="M 105.871094 0.867188 L 125.1875 11.988281 L 125.1875 72.285156 L 138.652344 70.53125 L 105.871094 90.433594 L 105.871094 0.867188 "/>
<path style="fill:none;stroke-width:10;stroke-linecap:butt;stroke-linejoin:miter;stroke:rgb(13.699341%,12.199402%,12.5%);stroke-opacity:1;stroke-miterlimit:4;" d="M 1058.710938 1439.228125 L 1251.875 1328.017187 L 1251.875 725.048437 L 1386.523438 742.5875 L 1058.710938 543.564062 Z M 1058.710938 1439.228125 " transform="matrix(0.1,0,0,-0.1,0,144.79)"/>
<path style=" stroke:none;fill-rule:nonzero;fill:rgb(13.699341%,12.199402%,12.5%);fill-opacity:1;" d="M 188.996094 0.867188 L 169.679688 11.988281 L 169.679688 72.871094 L 156.214844 70.53125 L 188.996094 90.433594 L 188.996094 0.867188 "/>
<path style="fill:none;stroke-width:10;stroke-linecap:butt;stroke-linejoin:miter;stroke:rgb(13.699341%,12.199402%,12.5%);stroke-opacity:1;stroke-miterlimit:4;" d="M 1889.960938 1439.228125 L 1696.796875 1328.017187 L 1696.796875 719.189062 L 1562.148438 742.5875 L 1889.960938 543.564062 Z M 1889.960938 1439.228125 " transform="matrix(0.1,0,0,-0.1,0,144.79)"/>
<path style=" stroke:none;fill-rule:nonzero;fill:rgb(13.699341%,12.199402%,12.5%);fill-opacity:1;" d="M 137.484375 36.578125 L 156.800781 36.578125 L 156.800781 62.917969 L 147.433594 89.261719 L 137.484375 62.917969 L 137.484375 36.578125 "/>
<path style="fill:none;stroke-width:10;stroke-linecap:butt;stroke-linejoin:miter;stroke:rgb(13.699341%,12.199402%,12.5%);stroke-opacity:1;stroke-miterlimit:4;" d="M 1374.84375 1082.11875 L 1568.007813 1082.11875 L 1568.007813 818.720312 L 1474.335938 555.282812 L 1374.84375 818.720312 Z M 1374.84375 1082.11875 " transform="matrix(0.1,0,0,-0.1,0,144.79)"/>
<g clip-path="url(#clip1)" clip-rule="nonzero">
<path style=" stroke:none;fill-rule:nonzero;fill:rgb(13.699341%,12.199402%,12.5%);fill-opacity:1;" d="M 0.5 116.777344 L 5.769531 119.703125 L 5.769531 136.09375 L 15.136719 129.65625 L 24.5 136.09375 L 24.5 119.703125 L 29.769531 116.777344 L 29.769531 144.289063 L 25.671875 144.289063 L 15.136719 136.679688 L 5.183594 144.289063 L 0.5 144.289063 L 0.5 116.777344 "/>
</g>
<g clip-path="url(#clip2)" clip-rule="nonzero">
<path style="fill:none;stroke-width:10;stroke-linecap:butt;stroke-linejoin:miter;stroke:rgb(13.699341%,12.199402%,12.5%);stroke-opacity:1;stroke-miterlimit:4;" d="M 5 280.126562 L 57.695313 250.86875 L 57.695313 86.9625 L 151.367188 151.3375 L 245 86.9625 L 245 250.86875 L 297.695313 280.126562 L 297.695313 5.009375 L 256.71875 5.009375 L 151.367188 81.103125 L 51.835938 5.009375 L 5 5.009375 Z M 5 280.126562 " transform="matrix(0.1,0,0,-0.1,0,144.79)"/>
</g>
<g clip-path="url(#clip3)" clip-rule="nonzero">
<path style=" stroke:none;fill-rule:nonzero;fill:rgb(13.699341%,12.199402%,12.5%);fill-opacity:1;" d="M 58.453125 116.191406 L 72.503906 144.289063 L 66.066406 144.289063 L 58.453125 128.484375 L 50.84375 144.289063 L 44.40625 144.289063 L 58.453125 116.191406 "/>
</g>
<g clip-path="url(#clip4)" clip-rule="nonzero">
<path style="fill:none;stroke-width:10;stroke-linecap:butt;stroke-linejoin:miter;stroke:rgb(13.699341%,12.199402%,12.5%);stroke-opacity:1;stroke-miterlimit:4;" d="M 584.53125 285.985937 L 725.039063 5.009375 L 660.664063 5.009375 L 584.53125 163.05625 L 508.4375 5.009375 L 444.0625 5.009375 Z M 584.53125 285.985937 " transform="matrix(0.1,0,0,-0.1,0,144.79)"/>
</g>
<g clip-path="url(#clip5)" clip-rule="nonzero">
<path style=" stroke:none;fill-rule:nonzero;fill:rgb(13.699341%,12.199402%,12.5%);fill-opacity:1;" d="M 87.722656 118.53125 L 87.722656 144.289063 L 93.578125 144.289063 L 93.578125 124.386719 L 110.554688 124.386719 L 110.554688 127.3125 L 104.113281 131.410156 L 96.503906 131.410156 L 108.800781 144.289063 L 116.992188 144.289063 L 108.214844 135.507813 L 116.410156 130.824219 L 116.410156 118.53125 L 87.722656 118.53125 "/>
</g>
<g clip-path="url(#clip6)" clip-rule="nonzero">
<path style="fill:none;stroke-width:10;stroke-linecap:butt;stroke-linejoin:miter;stroke:rgb(13.699341%,12.199402%,12.5%);stroke-opacity:1;stroke-miterlimit:4;" d="M 877.226563 262.5875 L 877.226563 5.009375 L 935.78125 5.009375 L 935.78125 204.032812 L 1105.546875 204.032812 L 1105.546875 174.775 L 1041.132813 133.798437 L 965.039063 133.798437 L 1088.007813 5.009375 L 1169.921875 5.009375 L 1082.148438 92.821875 L 1164.101563 139.657812 L 1164.101563 262.5875 Z M 877.226563 262.5875 " transform="matrix(0.1,0,0,-0.1,0,144.79)"/>
</g>
<path style=" stroke:none;fill-rule:nonzero;fill:rgb(13.699341%,12.199402%,12.5%);fill-opacity:1;" d="M 137.484375 118.53125 L 137.484375 123.800781 L 163.824219 123.800781 L 163.824219 118.53125 L 137.484375 118.53125 "/>
<path style="fill:none;stroke-width:10;stroke-linecap:butt;stroke-linejoin:miter;stroke:rgb(13.699341%,12.199402%,12.5%);stroke-opacity:1;stroke-miterlimit:4;" d="M 1374.84375 262.5875 L 1374.84375 209.892187 L 1638.242188 209.892187 L 1638.242188 262.5875 Z M 1374.84375 262.5875 " transform="matrix(0.1,0,0,-0.1,0,144.79)"/>
<g clip-path="url(#clip7)" clip-rule="nonzero">
<path style=" stroke:none;fill-rule:nonzero;fill:rgb(13.699341%,12.199402%,12.5%);fill-opacity:1;" d="M 137.484375 144.289063 L 143.335938 144.289063 L 143.335938 134.339844 L 163.824219 134.339844 L 163.824219 128.484375 L 137.484375 128.484375 L 137.484375 144.289063 "/>
</g>
<g clip-path="url(#clip8)" clip-rule="nonzero">
<path style="fill:none;stroke-width:10;stroke-linecap:butt;stroke-linejoin:miter;stroke:rgb(13.699341%,12.199402%,12.5%);stroke-opacity:1;stroke-miterlimit:4;" d="M 1374.84375 5.009375 L 1433.359375 5.009375 L 1433.359375 104.501562 L 1638.242188 104.501562 L 1638.242188 163.05625 L 1374.84375 163.05625 Z M 1374.84375 5.009375 " transform="matrix(0.1,0,0,-0.1,0,144.79)"/>
</g>
<g clip-path="url(#clip9)" clip-rule="nonzero">
<path style=" stroke:none;fill-rule:nonzero;fill:rgb(13.699341%,12.199402%,12.5%);fill-opacity:1;" d="M 191.925781 116.191406 L 177.875 144.289063 L 184.3125 144.289063 L 191.925781 128.484375 L 199.535156 144.289063 L 205.972656 144.289063 L 191.925781 116.191406 "/>
</g>
<g clip-path="url(#clip10)" clip-rule="nonzero">
<path style="fill:none;stroke-width:10;stroke-linecap:butt;stroke-linejoin:miter;stroke:rgb(13.699341%,12.199402%,12.5%);stroke-opacity:1;stroke-miterlimit:4;" d="M 1919.257813 285.985937 L 1778.75 5.009375 L 1843.125 5.009375 L 1919.257813 163.05625 L 1995.351563 5.009375 L 2059.726563 5.009375 Z M 1919.257813 285.985937 " transform="matrix(0.1,0,0,-0.1,0,144.79)"/>
</g>
<g clip-path="url(#clip11)" clip-rule="nonzero">
<path style=" stroke:none;fill-rule:nonzero;fill:rgb(13.699341%,12.199402%,12.5%);fill-opacity:1;" d="M 221.78125 144.289063 L 221.78125 118.53125 L 248.707031 118.53125 L 244.023438 124.386719 L 227.632813 124.386719 L 227.632813 138.4375 L 244.023438 138.4375 L 248.707031 144.289063 L 221.78125 144.289063 "/>
</g>
<g clip-path="url(#clip12)" clip-rule="nonzero">
<path style="fill:none;stroke-width:10;stroke-linecap:butt;stroke-linejoin:miter;stroke:rgb(13.699341%,12.199402%,12.5%);stroke-opacity:1;stroke-miterlimit:4;" d="M 2217.8125 5.009375 L 2217.8125 262.5875 L 2487.070313 262.5875 L 2440.234375 204.032812 L 2276.328125 204.032812 L 2276.328125 63.525 L 2440.234375 63.525 L 2487.070313 5.009375 Z M 2217.8125 5.009375 " transform="matrix(0.1,0,0,-0.1,0,144.79)"/>
</g>
<g clip-path="url(#clip13)" clip-rule="nonzero">
<path style=" stroke:none;fill-rule:nonzero;fill:rgb(13.699341%,12.199402%,12.5%);fill-opacity:1;" d="M 266.269531 118.53125 L 293.199219 118.53125 L 288.515625 124.386719 L 272.125 124.386719 L 272.125 129.070313 L 282.660156 129.070313 L 282.660156 133.753906 L 272.125 133.753906 L 272.125 138.4375 L 288.515625 138.4375 L 293.199219 144.289063 L 266.269531 144.289063 L 266.269531 118.53125 "/>
</g>
<g clip-path="url(#clip14)" clip-rule="nonzero">
<path style="fill:none;stroke-width:10;stroke-linecap:butt;stroke-linejoin:miter;stroke:rgb(13.699341%,12.199402%,12.5%);stroke-opacity:1;stroke-miterlimit:4;" d="M 2662.695313 262.5875 L 2931.992188 262.5875 L 2885.15625 204.032812 L 2721.25 204.032812 L 2721.25 157.196875 L 2826.601563 157.196875 L 2826.601563 110.360937 L 2721.25 110.360937 L 2721.25 63.525 L 2885.15625 63.525 L 2931.992188 5.009375 L 2662.695313 5.009375 Z M 2662.695313 262.5875 " transform="matrix(0.1,0,0,-0.1,0,144.79)"/>
</g>
</g>
</svg>
